<group>
loop_mode=no_loop
ampeg_release=0.250

<region>
sample=Horn.En1.wav
pitch_keycenter=40
lokey=0
hikey=42
tune=0

<region>
sample=Horn.Gn1.wav
pitch_keycenter=43
lokey=43
hikey=43
tune=0

<region>
sample=Horn.Gs1.wav
pitch_keycenter=44
lokey=44
hikey=44
tune=0

<region>
sample=Horn.An1.wav
pitch_keycenter=45
lokey=45
hikey=45
tune=0

<region>
sample=Horn.As1.wav
pitch_keycenter=46
lokey=46
hikey=46
tune=0

<region>
sample=Horn.Bn1.wav
pitch_keycenter=47
lokey=47
hikey=47
tune=0

<region>
sample=Horn.Cn2.wav
pitch_keycenter=48
lokey=48
hikey=48
tune=0

<region>
sample=Horn.Cs2.wav
pitch_keycenter=49
lokey=49
hikey=49
tune=0

<region>
sample=Horn.Dn2.wav
pitch_keycenter=50
lokey=50
hikey=50
tune=0

<region>
sample=Horn.Ds2.wav
pitch_keycenter=51
lokey=51
hikey=51
tune=0

<region>
sample=Horn.En2.wav
pitch_keycenter=52
lokey=52
hikey=52
tune=0

<region>
sample=Horn.Fn2.wav
pitch_keycenter=53
lokey=53
hikey=53
tune=0

<region>
sample=Horn.Fs2.wav
pitch_keycenter=54
lokey=54
hikey=54
tune=0

<region>
sample=Horn.Gn2.wav
pitch_keycenter=55
lokey=55
hikey=55
tune=0

<region>
sample=Horn.Gs2.wav
pitch_keycenter=56
lokey=56
hikey=56
tune=0

<region>
sample=Horn.An2.wav
pitch_keycenter=57
lokey=57
hikey=57
tune=0

<region>
sample=Horn.As2.wav
pitch_keycenter=58
lokey=58
hikey=58
tune=0

<region>
sample=Horn.Bn2.wav
pitch_keycenter=59
lokey=59
hikey=59
tune=0

<region>
sample=Horn.Cn3.wav
pitch_keycenter=60
lokey=60
hikey=60
tune=0

<region>
sample=Horn.Cs3.wav
pitch_keycenter=61
lokey=61
hikey=61
tune=0

<region>
sample=Horn.Dn3.wav
pitch_keycenter=62
lokey=62
hikey=62
tune=0

<region>
sample=Horn.Ds3.wav
pitch_keycenter=63
lokey=63
hikey=63
tune=0

<region>
sample=Horn.En3.wav
pitch_keycenter=64
lokey=64
hikey=64
tune=0

<region>
sample=Horn.Fn3.wav
pitch_keycenter=65
lokey=65
hikey=65
tune=0

<region>
sample=Horn.Fs3.wav
pitch_keycenter=66
lokey=66
hikey=66
tune=0

<region>
sample=Horn.Gn3.wav
pitch_keycenter=67
lokey=67
hikey=67
tune=0

<region>
sample=Horn.Gs3.wav
pitch_keycenter=68
lokey=68
hikey=68
tune=0

<region>
sample=Horn.An3.wav
pitch_keycenter=69
lokey=69
hikey=69
tune=0

<region>
sample=Horn.As3.wav
pitch_keycenter=70
lokey=70
hikey=127
tune=0


